<!-- Logos created and designed by Empty Soul -->
<svg id="EmptySoulLogoFont-Logo"  viewBox="0 0 885 110" class="EmptySoulLogoFont-Logo" xmlns="http://www.w3.org/2000/svg">
  <defs>
    <linearGradient id="grad1" x1="0%" y1="0%" x2="100%" y2="0%" gradientTransform="rotate(-10)">
      <stop offset="0%" style="stop-color:#2e7ab0;stop-opacity:1" />
      <stop offset="60%" style="stop-color:#2eb097;stop-opacity:1" />
    </linearGradient>
  </defs>
    <style type="text/css">
	    .eslogoname01{fill:url(#grad1);}
    </style>
  <path fill="url(#Gradient2)" class="eslogoname01" d="M194 1.4l-50 70.8-.1-.1v10.8h.2l43-60.5v87h7l-.1-108zm-99.8 0H94v108h7.1V11.2l-6.9-9.8zM275.1 8.2c-5.8-5-13.7-7.5-23.6-7.6h-24.1v6.9h24.9c7.8 0 13.8 2.1 18.1 6.2 3.9 3.8 6.1 7.9 6.4 13.5.5 8.3-3.4 17-10.6 21.5-3.9 2.5-9 3.8-15.3 3.8h-23.4v56.8h7.2V59.5h16.2c7.5 0 13.7-1.4 18.6-4.3 4.7-2.6 8.6-6.6 11-11.4 3.1-6 4.1-13.7 3.2-20.4-.9-6.2-3.9-11.2-8.6-15.2zM306.5.6v6.9H337v101.7h7.2V.6h-37.7zM453 .6l-35 51.3L382.6.6h-8.8L414.3 60v49.4h7.2V60L461.7.6H453zM687.4 28.9c-5-8.6-12.1-15.7-20.7-20.7-8.6-5.1-18.4-7.7-28.3-7.7-9.9-.1-19.6 2.6-28.1 7.7-8.5 5-15.5 12.2-20.5 20.7s-7.7 18.3-7.6 28.2c-.1 10.1 2.5 20 7.5 28.8 4.9 8.5 12 15.4 20.5 20.2 1.4.8 2.9 1.5 4.3 2.2v-8.6c-.2-.1-.3-.2-.5-.3-7.3-4.3-13.4-10.5-17.6-17.8-4.3-7.4-6.6-15.8-6.5-24.4-.1-17.4 9-33.6 24-42.6 15.1-9 33.9-9 49-.1 7.4 4.4 13.5 10.6 17.8 18 4.4 7.5 6.7 16 6.6 24.6.1 17.5-9.1 33.7-24.3 42.5-.2.1-.4.3-.7.4v8.2c1.5-.7 3-1.5 4.5-2.3 8.6-4.9 15.7-12 20.7-20.5 10.1-17.6 10.1-39.1-.1-56.5zM782.9.6v72.3c.1 5.5-1.2 10.9-3.8 15.7-2.4 4.4-5.9 7.9-10.3 10.3-9.3 4.8-20.4 4.8-29.7 0-4.3-2.4-7.9-6-10.2-10.3-2.5-4.8-3.8-10.2-3.7-15.7V.6H718v72.7c0 7.5 1.6 13.9 4.7 19.3 3 5.3 7.5 9.6 12.9 12.5 5.6 2.9 11.9 4.4 18.3 4.3 6.4.1 12.8-1.4 18.5-4.3 5.4-2.8 9.9-7.2 12.9-12.5 3.1-5.4 4.7-11.8 4.7-19.3V.6h-7.1zM826.9 102.5V.6h-7.2v108.8h64.4v-6.9h-57.2zM66.6 59h-55l43.1 46.3-4.4 4.1L.7 56l5.4-5.9L51.4 1.5l4.4 4.1L11.6 53h55zM511.9 109.4l-4.8-5.2-47.8-51.6h89.8l-37.2-40.1-26.2 28.2-5.5-5 31.7-34.1 4.6 5L566.1 60h-89.8l35.6 38.5 26.2-28.3 5.5 5z"/>
</svg>
